<svg width="31" height="33" viewBox="0 0 31 33" fill="none" xmlns="http://www.w3.org/2000/svg">
  <path
    d="M22.3608 7.11119L16.6845 0.880011C16.5902 0.777955 16.4782 0.69736 16.355 0.642406C16.2314 0.587453 16.0996 0.559712 15.9664 0.560759C15.7009 0.561805 15.4464 0.676422 15.2584 0.880011L0.891357 16.4574C0.702805 16.6636 0.596985 16.9426 0.596985 17.2336C0.596985 17.524 0.702805 17.8035 0.891357 18.0097L6.61768 24.2404C6.71243 24.3424 6.82449 24.423 6.94763 24.478C7.07077 24.5329 7.20303 24.5607 7.33627 24.5596C7.6013 24.5586 7.85574 24.444 8.04429 24.2404L10.9077 21.1248L19.4974 11.7786L22.3608 8.66297C22.5493 8.45676 22.6552 8.17781 22.6552 7.88682C22.6552 7.59635 22.5493 7.3174 22.3608 7.11119ZM18.7793 9.44487L18.0607 8.66297C17.8711 8.45833 17.6148 8.34319 17.3473 8.34319C17.0804 8.34319 16.8235 8.45833 16.634 8.66297C16.5393 8.76554 16.4642 8.88749 16.4127 9.02147C16.3613 9.15545 16.3348 9.29938 16.3348 9.44487C16.3348 9.59037 16.3613 9.73377 16.4127 9.86827C16.4642 10.0023 16.5393 10.1242 16.634 10.2263L17.3526 11.0082L15.9159 12.5605L13.7711 10.2263C13.5772 10.0462 13.3286 9.95201 13.0737 9.96248C12.8192 9.97347 12.5777 10.0881 12.3974 10.2843C12.217 10.4801 12.1117 10.7428 12.1016 11.0202C12.0919 11.2971 12.1785 11.5682 12.3444 11.7786L14.4892 14.1122L13.0525 15.6755L12.3444 14.8941C12.154 14.6869 11.8952 14.5702 11.6258 14.5702C11.3565 14.5702 11.0982 14.6869 10.9077 14.8941C10.7172 15.1014 10.61 15.3824 10.61 15.6755C10.61 15.9691 10.7172 16.2502 10.9077 16.4574L11.6258 17.2278L10.1992 18.7911L8.04429 16.4574C7.85478 16.2523 7.59842 16.1371 7.33098 16.1371C7.06355 16.1371 6.80719 16.2523 6.61768 16.4574C6.42912 16.6636 6.32377 16.9426 6.32377 17.2336C6.32377 17.524 6.42912 17.8035 6.61768 18.0097L8.76245 20.3434L7.33627 21.9067L3.03613 17.2278L15.9159 3.21369L20.216 7.89257L18.7793 9.44487Z"
    fill="#FF3343" />
  <path
    d="M11.7264 32.486H29.938C30.2064 32.486 30.4637 32.3698 30.6532 32.1636C30.8432 31.9569 30.95 31.6769 30.95 31.3854V11.5692C30.95 11.2777 30.8432 10.9977 30.6532 10.791C30.4637 10.5848 30.2064 10.4686 29.938 10.4686H23.8673C23.5994 10.4686 23.3416 10.5848 23.1521 10.791C22.9625 10.9977 22.8557 11.2777 22.8557 11.5692V23.6788H11.7264C11.458 23.6788 11.2006 23.795 11.0111 24.0012C10.8211 24.2079 10.7148 24.4879 10.7148 24.78V31.3854C10.7148 31.6769 10.8211 31.9569 11.0111 32.1636C11.2006 32.3698 11.458 32.486 11.7264 32.486ZM12.7379 25.8806H14.7615V26.9818C14.7615 27.2738 14.8683 27.5538 15.0578 27.76C15.2478 27.9667 15.5051 28.0824 15.7735 28.0824C16.0419 28.0824 16.2992 27.9667 16.4888 27.76C16.6787 27.5538 16.7851 27.2738 16.7851 26.9818V25.8806H18.8086V26.9818C18.8086 27.2738 18.9154 27.5538 19.1049 27.76C19.2949 27.9667 19.5522 28.0824 19.8206 28.0824C20.0886 28.0824 20.3459 27.9667 20.5359 27.76C20.7254 27.5538 20.8322 27.2738 20.8322 26.9818V25.8806H22.8557V26.9818C22.8557 27.2738 22.9625 27.5538 23.1521 27.76C23.3416 27.9667 23.5994 28.0824 23.8673 28.0824C24.1357 28.0824 24.393 27.9667 24.583 27.76C24.7725 27.5538 24.8793 27.2738 24.8793 26.9818V25.8806H25.8909C26.1593 25.8806 26.4166 25.7649 26.6066 25.5582C26.7961 25.352 26.9029 25.072 26.9029 24.78C26.9029 24.4879 26.7961 24.2079 26.6066 24.0012C26.4166 23.795 26.1593 23.6788 25.8909 23.6788H24.8793V21.4775H25.8909C26.1593 21.4775 26.4166 21.3614 26.6066 21.1546C26.7961 20.9484 26.9029 20.6684 26.9029 20.3764C26.9029 20.0843 26.7961 19.8043 26.6066 19.5981C26.4166 19.3914 26.1593 19.2757 25.8909 19.2757H24.8793V17.074H25.8909C26.1593 17.074 26.4166 16.9578 26.6066 16.7516C26.7961 16.5448 26.9029 16.2648 26.9029 15.9728C26.9029 15.6808 26.7961 15.4008 26.6066 15.1945C26.4166 14.9878 26.1593 14.8722 25.8909 14.8722H24.8793V12.6704H28.9264V30.2842H12.7379V25.8806Z"
    fill="#FF3343" />
</svg>