<svg width="24" height="33" viewBox="0 0 24 33" fill="none" xmlns="http://www.w3.org/2000/svg">
  <path
    d="M13.5933 19.7159H7.70108C7.3105 19.7159 6.9358 19.8839 6.65971 20.1832C6.38361 20.4826 6.22825 20.8887 6.22825 21.3121C6.22825 21.7355 6.38361 22.1417 6.65971 22.441C6.9358 22.7404 7.3105 22.9084 7.70108 22.9084H13.5933C13.9844 22.9084 14.3591 22.7404 14.6352 22.441C14.9113 22.1417 15.0666 21.7355 15.0666 21.3121C15.0666 20.8887 14.9113 20.4826 14.6352 20.1832C14.3591 19.8839 13.9844 19.7159 13.5933 19.7159ZM19.4856 3.75326H17.7477C17.4437 2.82167 16.8814 2.01516 16.1378 1.44312C15.3937 0.871611 14.5053 0.563347 13.5933 0.56073H10.6477C9.7357 0.563347 8.8473 0.871611 8.10319 1.44312C7.35957 2.01516 6.79727 2.82167 6.49328 3.75326H4.75542C3.58322 3.75326 2.45914 4.25778 1.63037 5.15587C0.801611 6.05396 0.335999 7.27183 0.335999 8.54204V27.6972C0.335999 28.9674 0.801611 30.1853 1.63037 31.0834C2.45914 31.9814 3.58322 32.486 4.75542 32.486H19.4856C20.6578 32.486 21.7819 31.9814 22.6106 31.0834C23.4394 30.1853 23.905 28.9674 23.905 27.6972V8.54204C23.905 7.27183 23.4394 6.05396 22.6106 5.15587C21.7819 4.25778 20.6578 3.75326 19.4856 3.75326ZM9.17437 5.34951C9.17437 4.92611 9.32974 4.51998 9.60583 4.22062C9.88193 3.92125 10.2566 3.75326 10.6477 3.75326H13.5933C13.9844 3.75326 14.3591 3.92125 14.6352 4.22062C14.9113 4.51998 15.0666 4.92611 15.0666 5.34951V6.94578H9.17437V5.34951ZM20.9589 27.6972C20.9589 28.1206 20.8035 28.5267 20.5274 28.8261C20.2513 29.1254 19.8766 29.2934 19.4856 29.2934H4.75542C4.36437 29.2934 3.98968 29.1254 3.71358 28.8261C3.43749 28.5267 3.28212 28.1206 3.28212 27.6972V8.54204C3.28212 8.11864 3.43749 7.71251 3.71358 7.41314C3.98968 7.11378 4.36437 6.94578 4.75542 6.94578H6.22825V8.54204C6.22825 8.96544 6.38361 9.37157 6.65971 9.67093C6.9358 9.9703 7.3105 10.1383 7.70108 10.1383H16.5399C16.9305 10.1383 17.3052 9.9703 17.5813 9.67093C17.8574 9.37157 18.0127 8.96544 18.0127 8.54204V6.94578H19.4856C19.8766 6.94578 20.2513 7.11378 20.5274 7.41314C20.8035 7.71251 20.9589 8.11864 20.9589 8.54204V27.6972ZM16.5399 13.3308H7.70108C7.3105 13.3308 6.9358 13.4988 6.65971 13.7982C6.38361 14.0976 6.22825 14.5037 6.22825 14.9271C6.22825 15.3505 6.38361 15.7566 6.65971 16.056C6.9358 16.3553 7.3105 16.5233 7.70108 16.5233H16.5399C16.9305 16.5233 17.3052 16.3553 17.5813 16.056C17.8574 15.7566 18.0127 15.3505 18.0127 14.9271C18.0127 14.5037 17.8574 14.0976 17.5813 13.7982C17.3052 13.4988 16.9305 13.3308 16.5399 13.3308Z"
    fill="white" />
</svg>