<svg width="12" height="10" viewBox="0 0 12 10" fill="none" xmlns="http://www.w3.org/2000/svg">
  <path
    d="M11.348 1.59622C10.9502 1.78463 10.5298 1.90919 10.0993 1.96623C10.5534 1.66949 10.8935 1.20316 11.057 0.652584C10.6303 0.930491 10.1633 1.12622 9.67604 1.23142C9.35041 0.845176 8.91655 0.588206 8.44325 0.500804C7.96946 0.412879 7.48269 0.499762 7.05893 0.747313C6.63517 0.994865 6.29895 1.38896 6.10222 1.86836C5.90549 2.34776 5.8598 2.88473 5.97235 3.39554C5.10944 3.34791 4.26576 3.10193 3.49568 2.67435C2.72511 2.24676 2.04594 1.64645 1.50145 0.913212C1.31049 1.278 1.20997 1.69095 1.21046 2.11068C1.20997 2.50111 1.29752 2.88526 1.46539 3.22964C1.63325 3.57401 1.87663 3.86761 2.17341 4.08376C1.82853 4.07382 1.49088 3.97228 1.18929 3.7891V3.81789C1.19169 4.36481 1.36726 4.8934 1.6852 5.31524C2.00314 5.73707 2.44518 6.02544 2.93532 6.13221C2.74677 6.19501 2.55051 6.22798 2.3533 6.2306C2.2167 6.22903 2.08058 6.21542 1.9459 6.1903C2.08539 6.66028 2.35571 7.07165 2.71887 7.36578C3.08202 7.66043 3.52021 7.82373 3.97235 7.83367C3.209 8.4905 2.26625 8.84899 1.29511 8.8516C1.1181 8.85265 0.941571 8.84062 0.766006 8.81707C1.75783 9.51733 2.91367 9.88892 4.09405 9.88735C4.90886 9.89677 5.71694 9.72825 6.47114 9.39225C7.22583 9.05625 7.91174 8.55905 8.48846 7.92997C9.06518 7.30036 9.52165 6.55194 9.83094 5.72764C10.1402 4.90335 10.2961 4.02043 10.2898 3.12914C10.2898 3.03075 10.2898 2.9266 10.2898 2.82245C10.7049 2.48383 11.0633 2.06881 11.348 1.59622Z"
    fill="white" />
</svg>