<svg width="32" height="38" viewBox="0 0 32 38" fill="none" xmlns="http://www.w3.org/2000/svg">
  <path
    d="M23.2635 22.922C23.1991 22.9974 23.1418 23.0801 23.0928 23.1685C23.0365 23.247 22.9932 23.3355 22.9648 23.4302C22.9215 23.5223 22.8927 23.6212 22.8797 23.7233C22.822 24.0184 22.8518 24.3257 22.9648 24.6015C23.0288 24.7925 23.1303 24.9663 23.2631 25.1102C23.3958 25.2541 23.556 25.3645 23.7325 25.4336C23.9009 25.52 24.086 25.5624 24.2722 25.5571C24.4569 25.5592 24.6406 25.5226 24.8124 25.4488C24.9821 25.3598 25.1399 25.2457 25.2813 25.1102C25.4131 24.9663 25.517 24.7951 25.5882 24.6078C25.6589 24.4199 25.6945 24.2189 25.6935 24.0158C25.6984 23.8138 25.6594 23.6134 25.5796 23.4302C25.5079 23.2433 25.4069 23.0717 25.2813 22.922C25.1486 22.7791 24.9913 22.6661 24.8181 22.5891C24.645 22.5127 24.4593 22.4735 24.2722 22.475C24.0865 22.4771 23.9033 22.519 23.7325 22.598C23.5579 22.6713 23.3987 22.7817 23.2635 22.922ZM17.4083 29.3322C17.352 29.4112 17.3088 29.4996 17.2804 29.5944C17.227 29.6844 17.1885 29.7833 17.1669 29.8869C17.1241 30.0848 17.1241 30.2904 17.1669 30.4883L17.252 30.7657L17.3799 31.043L17.5502 31.2739C17.8297 31.5627 18.2015 31.7234 18.5877 31.7208C18.7748 31.7224 18.96 31.6831 19.1332 31.6067C19.3063 31.5298 19.4641 31.4167 19.5969 31.2739C19.7224 31.1242 19.8234 30.9525 19.8951 30.7657C19.9836 30.5322 20.0177 30.2784 19.9947 30.0277C19.9721 29.7765 19.8922 29.5352 19.7633 29.3254C19.6339 29.115 19.4593 28.9428 19.2544 28.8229C19.0495 28.7036 18.8205 28.6403 18.5877 28.6387C18.2116 28.6445 17.8513 28.8041 17.5786 29.0857L17.4083 29.3322ZM23.2635 29.0857C23.1341 29.2322 23.0327 29.4054 22.9648 29.5944C22.8455 29.8733 22.8061 30.1847 22.8513 30.4883L22.9365 30.7657C22.9677 30.8635 23.0105 30.9572 23.0644 31.043C23.1168 31.1236 23.1736 31.2011 23.2347 31.2739C23.3698 31.4146 23.5295 31.5245 23.7036 31.5978C23.8739 31.6795 24.0581 31.7213 24.2438 31.7213C24.43 31.7213 24.6137 31.6795 24.784 31.5978C24.9562 31.5198 25.1149 31.4104 25.253 31.2739C25.3896 31.1325 25.4992 30.963 25.5747 30.7751C25.6507 30.5872 25.6907 30.3852 25.6935 30.18C25.6984 29.978 25.6594 29.777 25.5796 29.5944C25.5079 29.4075 25.4069 29.2359 25.2813 29.0857C25.1433 28.9496 24.9846 28.8402 24.8124 28.7622C24.6421 28.6806 24.4583 28.6387 24.2722 28.6387C24.0865 28.6387 23.9023 28.6806 23.7325 28.7622C23.5579 28.8355 23.3987 28.9454 23.2635 29.0857ZM17.2804 24.6015C17.3482 24.7904 17.4492 24.9636 17.5786 25.1102C17.8513 25.3918 18.2116 25.5514 18.5877 25.5571C18.8205 25.5556 19.0495 25.4922 19.2544 25.3729C19.4593 25.2531 19.6339 25.0809 19.7633 24.8705C19.8922 24.6606 19.9721 24.4193 19.9947 24.1687C20.0177 23.9174 19.9836 23.6636 19.8951 23.4302C19.8234 23.2433 19.7224 23.0717 19.5969 22.922C19.4641 22.7791 19.3063 22.6661 19.1332 22.5891C18.96 22.5127 18.7748 22.4735 18.5877 22.475C18.2116 22.4808 17.8513 22.6404 17.5786 22.922C17.3814 23.1387 17.2481 23.4134 17.1948 23.7128C17.1418 24.0116 17.1717 24.3209 17.2804 24.6015ZM23.2635 16.7578C23.138 16.9075 23.037 17.0797 22.9648 17.266C22.8561 17.547 22.8263 17.8564 22.8792 18.1552C22.9326 18.454 23.0663 18.7293 23.2635 18.946C23.3987 19.0863 23.5579 19.1962 23.7325 19.2694C23.9023 19.3511 24.0865 19.3935 24.2722 19.3935C24.4583 19.3935 24.6421 19.3511 24.8124 19.2694C24.9846 19.1915 25.1433 19.0821 25.2813 18.946C25.4131 18.8021 25.517 18.6315 25.5882 18.4436C25.6589 18.2557 25.6945 18.0547 25.6935 17.8516C25.6984 17.6496 25.6594 17.4492 25.5796 17.266C25.5079 17.0797 25.4069 16.9075 25.2813 16.7578C25.0817 16.5438 24.8277 16.3993 24.5521 16.3412C24.2765 16.2836 23.9913 16.3161 23.7325 16.4338C23.5579 16.5076 23.3987 16.6175 23.2635 16.7578ZM5.79756 17.8516V30.18C5.79756 30.5888 5.9473 30.9808 6.21377 31.2697C6.48029 31.5586 6.84176 31.7208 7.21867 31.7208H12.9032C13.2804 31.7208 13.6416 31.5586 13.9081 31.2697C14.1746 30.9808 14.3242 30.5888 14.3242 30.18V17.8516C14.3242 17.4429 14.1746 17.0514 13.9081 16.762C13.6416 16.4731 13.2804 16.3109 12.9032 16.3109H7.21867C6.84176 16.3109 6.48029 16.4731 6.21377 16.762C5.9473 17.0514 5.79756 17.4429 5.79756 17.8516ZM11.4821 19.393V28.6387H8.63984V19.393H11.4821ZM0.113007 14.7696V33.2621C0.113007 34.4884 0.562164 35.6638 1.36173 36.531C2.1613 37.3983 3.24571 37.885 4.3764 37.885H27.1144C28.2453 37.885 29.3299 37.3983 30.1293 36.531C30.9288 35.6638 31.378 34.4884 31.378 33.2621V14.7696C31.378 13.5438 30.9288 12.3678 30.1293 11.5006C29.3299 10.6339 28.2453 10.1467 27.1144 10.1467H4.3764C3.24571 10.1467 2.1613 10.6339 1.36173 11.5006C0.562164 12.3678 0.113007 13.5438 0.113007 14.7696ZM27.1144 13.2288C27.4915 13.2288 27.8528 13.391 28.1197 13.6799C28.3862 13.9693 28.5358 14.3613 28.5358 14.7696V33.2621C28.5358 33.6709 28.3862 34.0629 28.1197 34.3518C27.8528 34.6407 27.4915 34.8029 27.1144 34.8029H4.3764C3.99949 34.8029 3.63801 34.6407 3.37154 34.3518C3.10502 34.0629 2.95529 33.6709 2.95529 33.2621V14.7696C2.95529 14.3613 3.10502 13.9693 3.37154 13.6799C3.63801 13.391 3.99949 13.2288 4.3764 13.2288H27.1144ZM17.4083 17.0043C17.352 17.0828 17.3088 17.1718 17.2804 17.266C17.2371 17.3581 17.2082 17.457 17.1952 17.5591C17.1524 17.7569 17.1524 17.9626 17.1952 18.1599L17.2804 18.4373L17.4083 18.7147L17.5786 18.946C17.8513 19.2276 18.2116 19.3872 18.5877 19.393C18.8205 19.3914 19.0495 19.3286 19.2544 19.2087C19.4593 19.0889 19.6339 18.9167 19.7633 18.7068C19.8922 18.4964 19.9721 18.2557 19.9947 18.0045C20.0177 17.7533 19.9836 17.4999 19.8951 17.266C19.8234 17.0797 19.7224 16.9075 19.5969 16.7578C19.4641 16.6149 19.3063 16.5019 19.1332 16.4255C18.96 16.3485 18.7748 16.3098 18.5877 16.3109C18.2116 16.3166 17.8513 16.4762 17.5786 16.7578L17.4083 17.0043Z"
    fill="#FF3343" />
  <path
    d="M5.92935 1.28248C5.85374 1.36622 5.79405 1.46514 5.75369 1.57399C5.71333 1.68233 5.69309 1.79852 5.6941 1.91575L5.76067 7.25669C5.76254 7.37393 5.78568 7.48959 5.82878 7.59688C5.87183 7.70469 5.93397 7.80151 6.0116 7.88263C6.08837 7.96533 6.17933 8.03022 6.27923 8.07418C6.37909 8.11815 6.48596 8.14013 6.59371 8.13908L9.8698 8.0904L22.5228 7.90357C22.6305 7.902 22.7368 7.87636 22.8354 7.82978C22.934 7.78267 23.0235 7.71516 23.0981 7.6309L25.5189 4.92405C25.6705 4.755 25.7542 4.52734 25.7513 4.29078C25.7479 4.05474 25.6589 3.82917 25.5036 3.66484L23.0158 1.03075C22.9384 0.938633 22.8436 0.865884 22.7383 0.816164C22.6329 0.766968 22.5194 0.741846 22.4045 0.743417L9.78683 0.967417L6.53344 0.977883C6.42454 0.982593 6.31723 1.00772 6.21593 1.05168C6.16476 1.09669 6.11877 1.14798 6.0789 1.20503C6.04955 1.23172 6.02281 1.26155 5.99895 1.294L5.92935 1.28248ZM22.1144 2.56211L23.7748 4.32009L22.1592 6.12674L10.6637 6.29631L10.6193 2.73168L22.1144 2.56211ZM8.98707 2.75575L9.03146 6.32039L7.39333 6.33818L7.34907 2.78611L8.98707 2.75575Z"
    fill="#FF3343" />
</svg>