<svg width="13" height="10" viewBox="0 0 13 10" fill="none" xmlns="http://www.w3.org/2000/svg">
  <path
    d="M12.8631 3.78751C12.891 2.91559 12.7135 2.05047 12.346 1.27222C12.0969 0.952971 11.751 0.737344 11.3691 0.663026C9.78805 0.50968 8.20124 0.446361 6.61394 0.474623C5.03289 0.445314 3.45135 0.506024 1.87607 0.657276C1.56487 0.717987 1.27627 0.874469 1.04683 1.10789C0.535526 1.61346 0.478792 2.47806 0.422034 3.20868C0.339302 4.52285 0.339302 5.84119 0.422034 7.15536C0.438388 7.56673 0.495119 7.97495 0.592281 8.37323C0.660583 8.68097 0.799117 8.96515 0.995365 9.20119C1.22673 9.44717 1.52206 9.61257 1.84193 9.67642C3.06656 9.83866 4.3008 9.90565 5.53457 9.87739C7.52302 9.90775 9.26713 9.87738 11.3292 9.70676C11.6572 9.6471 11.9607 9.4812 12.1983 9.23208C12.3576 9.06146 12.4764 8.85264 12.5451 8.62288C12.7481 7.95455 12.8477 7.25534 12.8405 6.55246C12.8631 6.21122 12.8631 4.15282 12.8631 3.78751ZM5.33015 6.91777V3.14797L8.6933 5.04202C7.75006 5.60202 6.50619 6.23582 5.33015 6.91777Z"
    fill="white" />
</svg>